HIERARCHY
ROOT root
{
	OFFSET	0	13.1	24.9
	CHANNELS 6  Xposition Yposition Zposition Xrotation Yrotation Zrotation
	JOINT spine_1
	{
		OFFSET	0	9.99999	0
		CHANNELS 3  Xrotation Yrotation Zrotation
		JOINT spine_2
		{
			OFFSET	0	112	-10
			CHANNELS 3  Xrotation Yrotation Zrotation
			JOINT spine_3
			{
				OFFSET	0	206.5	19.3
				CHANNELS 3  Xrotation Yrotation Zrotation
				JOINT spine_4
				{
					OFFSET	0	110.4	14.6
					CHANNELS 3  Xrotation Yrotation Zrotation
					JOINT neck_1
					{
						OFFSET	0	71.8	-50.3
						CHANNELS 3  Xrotation Yrotation Zrotation
						JOINT neck_2
						{
							OFFSET	0	86.2	-25.8
							CHANNELS 3  Xrotation Yrotation Zrotation
							JOINT head_ee
							{
								OFFSET	0	179.8	-8.7
								CHANNELS 3  Xrotation Yrotation Zrotation
								End Site
								{
									OFFSET	1	0	0
								}
							}
						}
					}
					JOINT left_clavicle
					{
						OFFSET	-43.2	22.4	-70.8
						CHANNELS 3  Xrotation Yrotation Zrotation
						JOINT left_shoulder
						{
							OFFSET	-93.9	-5.79999	48.7
							CHANNELS 3  Xrotation Yrotation Zrotation
							JOINT left_elbow
							{
								OFFSET	-291.4	-30.8	15.2
								CHANNELS 3  Xrotation Yrotation Zrotation
								JOINT left_lowarm_twist
								{
									OFFSET	-110.7	-3.89999	13.6
									CHANNELS 3  Xrotation Yrotation Zrotation
									JOINT left_hand
									{
										OFFSET	-110.7	-3.89999	13.6
										CHANNELS 3  Xrotation Yrotation Zrotation
										JOINT left_ee
										{
											OFFSET	-80.8	-5.10001	12.1
											CHANNELS 3  Xrotation Yrotation Zrotation
											End Site
											{
												OFFSET	1	0	0
											}
										}
									}
								}
							}
						}
					}
					JOINT right_clavicle
					{
						OFFSET	43.2	22.4	-70.8
						CHANNELS 3  Xrotation Yrotation Zrotation
						JOINT right_shoulder
						{
							OFFSET	93.9	-5.79999	48.7
							CHANNELS 3  Xrotation Yrotation Zrotation
							JOINT right_elbow
							{
								OFFSET	291.4	-30.8	15.2
								CHANNELS 3  Xrotation Yrotation Zrotation
								JOINT right_lowarm_twist
								{
									OFFSET	110.7	-3.89999	13.6
									CHANNELS 3  Xrotation Yrotation Zrotation
									JOINT right_hand
									{
										OFFSET	110.7	-3.89999	13.6
										CHANNELS 3  Xrotation Yrotation Zrotation
										JOINT right_ee
										{
											OFFSET	80.8	-5.10001	12.1
											CHANNELS 3  Xrotation Yrotation Zrotation
											End Site
											{
												OFFSET	1	0	0
											}
										}
									}
								}
							}
						}
					}
				}
			}
		}
	}
	JOINT left_hip
	{
		OFFSET	-82.8	-127.5	0.300001
		CHANNELS 3  Xrotation Yrotation Zrotation
		JOINT left_knee
		{
			OFFSET	-28.2	-396.7	2.2
			CHANNELS 3  Xrotation Yrotation Zrotation
			JOINT left_ankle
			{
				OFFSET	-11.7	-411.3	35.4
				CHANNELS 3  Xrotation Yrotation Zrotation
				JOINT left_toes
				{
					OFFSET	0	-60	-88.6
					CHANNELS 3  Xrotation Yrotation Zrotation
					JOINT left_foot_ee
					{
						OFFSET	-22.5	-16.5	-42.2
						CHANNELS 3  Xrotation Yrotation Zrotation
						End Site
						{
							OFFSET	1	0	0
						}
					}
				}
			}
		}
	}
	JOINT right_hip
	{
		OFFSET	82.8	-127.5	0.300001
		CHANNELS 3  Xrotation Yrotation Zrotation
		JOINT right_knee
		{
			OFFSET	28.2	-396.7	2.2
			CHANNELS 3  Xrotation Yrotation Zrotation
			JOINT right_ankle
			{
				OFFSET	11.7	-411.3	35.4
				CHANNELS 3  Xrotation Yrotation Zrotation
				JOINT right_toes
				{
					OFFSET	0	-60	-88.6
					CHANNELS 3  Xrotation Yrotation Zrotation
					JOINT right_foot_ee
					{
						OFFSET	22.5	-16.5	-42.2
						CHANNELS 3  Xrotation Yrotation Zrotation
						End Site
						{
							OFFSET	1	0	0
						}
					}
				}
			}
		}
	}
}
MOTION
Frames: 11
Frame Time: 0.02
638.909 748.904 -582.991 -166.195 -82.8495 -167.307 0.266932 0.124737 1.04844 0.267541 0.0577729 1.05425 0.268865 -0.160215 1.04361 0.267345 0.00660445 1.05581 -20.7791 1.05674 -0.242753 -20.786 2.15851 0.229395 -0.0 0.0 -0.0 5.45698 18.458 10.4681 -11.2922 -35.2258 55.4182 1.04088 -27.2759 0.252551 -68.2577 -6.32389 5.28322 -0.0498451 15.2493 5.92844 -0.0 0.0 -0.0 8.07832 10.4211 -15.6671 -20.5381 15.0929 -67.5915 0.709724 19.3705 -0.121129 -13.01 0.635559 -1.53368 -1.71675 -8.70491 7.48114 0.0 0.0 0.0 1.52126 44.4369 -2.95215 5.87525 -0.28613 -0.855532 6.62315 -29.56 -1.20198 -31.4496 0.0 0.0 -0.0 0.0 -0.0 9.14834 4.48048 4.55071 -19.0401 -0.305826 -2.89242 20.1356 11.7951 2.90354 -2.82823 0.0 0.0 0.0 0.0 0.0 
639.911 747.023 -583.226 -162.536 -83.6287 -163.4 0.381764 0.0974709 0.985708 0.382304 0.0345533 0.989912 0.383107 -0.167766 0.976206 0.381776 -0.0114945 0.990448 -20.6877 0.133454 -1.39105 -20.6837 0.947611 -1.23403 -0.0 0.0 -0.0 5.33352 18.3142 10.2814 -11.9649 -35.4546 54.6334 1.14188 -29.494 0.300578 -67.4683 -6.22343 5.27236 -0.0934877 13.5121 4.96422 -0.0 0.0 -0.0 7.89295 9.92373 -15.2869 -20.6811 15.1749 -67.6849 0.686703 18.7869 -0.113604 -12.27 0.590167 -1.45057 -1.82974 -10.2174 7.49641 0.0 0.0 0.0 1.10645 44.029 -2.09981 7.12146 -0.358036 -1.03304 8.51291 -29.901 -1.54027 -30.5524 0.0 0.0 -0.0 0.0 -0.0 9.1824 4.70333 4.43051 -19.1871 -0.304425 -2.91495 20.2432 11.5454 2.91314 -2.25183 0.0 0.0 0.0 0.0 0.0 
643.998 745.18 -580.247 -162.46 -83.2311 -163.532 0.522927 0.143442 1.05739 0.523546 0.0758706 1.06437 0.525187 -0.139851 1.05787 0.523626 0.0289652 1.06668 -21.167 0.711561 -0.485383 -21.1705 1.60964 -0.139357 -0.0 0.0 -0.0 5.31786 18.1703 10.2614 -12.5227 -35.5727 54.1017 1.14957 -29.659 0.304372 -67.0161 -6.16595 5.26551 -0.314623 13.406 3.53203 -0.0 0.0 -0.0 7.78525 9.63159 -15.0668 -20.9102 15.2414 -67.7099 0.703017 19.2009 -0.118914 -12.112 0.580617 -1.43276 -2.00876 -11.252 8.15087 0.0 0.0 0.0 1.00891 41.3173 -2.35584 6.68724 -0.332542 -0.971364 7.00999 -29.6794 -1.2723 -30.0548 0.0 0.0 -0.0 0.0 -0.0 9.17338 4.8982 4.38711 -19.2534 -0.303774 -2.9251 21.6016 12.4101 3.1025 -2.08925 0.0 0.0 0.0 0.0 0.0 
646.331 743.691 -578.007 -162.534 -82.8154 -163.86 0.654629 0.156638 1.04109 0.655228 0.0900768 1.04895 0.657086 -0.120421 1.0459 0.655562 0.0462611 1.05179 -21.5125 0.608647 -0.425793 -21.5151 1.37961 -0.125267 -0.0 0.0 -0.0 5.22641 18.0154 10.1235 -13.0578 -35.6294 53.638 1.1586 -29.852 0.308852 -67.0711 -6.17294 5.26637 -0.287097 12.291 3.24764 -0.0 0.0 -0.0 7.68072 9.19867 -14.8582 -20.8501 15.403 -67.9466 0.704691 19.2433 -0.119465 -11.9978 0.573743 -1.41986 -2.10352 -11.4661 8.65521 0.0 0.0 0.0 0.882093 42.7044 -2.21599 6.78768 -0.338397 -0.985646 9.05062 -29.7117 -1.62968 -29.6688 0.0 0.0 -0.0 0.0 -0.0 9.2222 4.66233 4.29895 -19.2506 -0.303803 -2.92466 22.1091 12.4544 3.16755 -1.71118 0.0 0.0 0.0 0.0 0.0 
647.828 743.871 -574.905 -161.951 -83.0224 -163.292 0.784331 0.195182 1.08551 0.784978 0.125717 1.09573 0.7876 -0.0922912 1.09905 0.785924 0.0824299 1.09983 -21.2526 1.1737 0.378527 -21.2589 2.08057 0.865815 -0.0 0.0 -0.0 5.21197 18.2976 10.0933 -13.2975 -35.6997 53.3741 1.19087 -30.5362 0.325085 -68.1204 -6.3064 5.28143 -0.603852 11.8465 1.05802 -0.0 0.0 -0.0 7.56976 8.88062 -14.6329 -20.637 15.274 -68.377 0.70889 19.3494 -0.120852 -11.6938 0.555576 -1.38547 -2.15986 -11.872 8.81684 0.0 0.0 0.0 0.849465 41.6015 -2.34592 6.32226 -0.311476 -0.919378 8.09238 -29.7019 -1.46279 -29.4128 0.0 0.0 -0.0 0.0 -0.0 9.26192 4.50321 4.23272 -19.2749 -0.303561 -2.92839 21.4566 13.2395 3.10012 -1.83157 0.0 0.0 0.0 0.0 0.0 
649.859 742.455 -572.698 -164.991 -82.9405 -166.392 0.832947 0.225305 1.11965 0.833632 0.153607 1.13171 0.836899 -0.0710405 1.13988 0.835102 0.109861 1.13679 -21.4669 1.21877 -0.325184 -21.4767 2.50867 0.237555 -0.0 0.0 -0.0 5.52649 18.5375 10.5729 -13.5641 -35.4871 52.887 1.2354 -31.4646 0.348019 -70.9395 -6.66598 5.3097 -1.27832 12.1459 -3.07735 -0.0 0.0 -0.0 7.64215 9.56699 -14.7647 -20.3358 15.1052 -68.3342 0.693155 18.9509 -0.115691 -10.7838 0.502282 -1.28196 -2.05884 -11.3577 8.42112 0.0 0.0 0.0 0.931239 40.828 -2.63105 6.04214 -0.295534 -0.879391 6.90678 -29.3149 -1.24796 -29.3019 0.0 0.0 -0.0 0.0 -0.0 9.53412 1.959 4.4593 -20.8821 -0.28411 -3.17422 22.3324 12.0457 3.18778 -1.64356 0.0 0.0 0.0 0.0 0.0 
652.181 742.528 -570.159 -164.859 -83.2732 -166.535 0.884229 0.239134 1.1546 0.884955 0.165184 1.16748 0.888561 -0.0656299 1.17728 0.886647 0.12111 1.17287 -22.7785 1.27821 0.124725 -22.7885 2.40966 0.710395 -0.0 0.0 -0.0 5.74267 18.8926 10.8926 -14.0189 -35.8662 52.7569 1.24053 -31.5704 0.350702 -73.6044 -7.00653 5.32003 -1.619 12.6848 -4.98345 -0.0 0.0 -0.0 7.73386 9.24369 -14.9696 -20.2235 14.5761 -68.1764 0.691649 18.9127 -0.115202 -10.8379 0.505408 -1.28814 -2.17495 -12.5942 8.55569 0.0 0.0 0.0 0.880138 40.2307 -2.68979 5.40282 -0.259885 -0.787846 7.55 -29.7078 -1.36788 -28.3772 0.0 0.0 -0.0 0.0 -0.0 9.60591 3.05587 4.48408 -22.0652 -0.265389 -3.35479 21.7775 11.9933 3.11694 -1.96923 0.0 0.0 0.0 0.0 0.0 
654.347 738.871 -565.865 -165.843 -83.6377 -167.589 0.969696 0.250189 1.1521 0.970417 0.176376 1.16568 0.974231 -0.0525384 1.17778 0.97232 0.134116 1.17129 -22.4421 1.37542 0.311034 -22.4525 2.50983 0.920245 -0.0 0.0 -0.0 6.0357 19.5132 11.3123 -14.0207 -34.5147 52.983 1.24159 -31.5921 0.351254 -75.1044 -7.1982 5.31883 -2.15091 12.8873 -8.25743 -0.0 0.0 -0.0 7.99684 9.04095 -15.534 -19.9626 13.9255 -67.776 0.689837 18.8666 -0.114615 -10.0388 0.459888 -1.1966 -2.39809 -12.0471 10.2597 0.0 0.0 0.0 0.839632 39.7411 -2.64033 5.38034 -0.258651 -0.78462 6.87619 -29.096 -1.23898 -28.7994 0.0 0.0 -0.0 0.0 -0.0 9.60649 0.00314381 4.5444 -22.8996 -0.249943 -3.4819 23.5595 11.7215 3.33384 -1.55902 0.0 0.0 0.0 0.0 0.0 
657.798 737.058 -563.008 -167.288 -84.1513 -168.915 0.962808 0.192335 1.07201 0.963439 0.123734 1.08207 0.965956 -0.08817 1.08555 0.964321 0.084368 1.08585 -23.7414 0.909813 -0.151487 -23.7476 1.82269 0.298108 -0.0 0.0 -0.0 5.65695 19.7618 10.7232 -13.6621 -34.3237 54.0436 1.2712 -32.1979 0.366903 -78.0875 -7.57874 5.30141 -2.43784 12.921 -10.0703 -0.0 0.0 -0.0 7.91435 8.97575 -15.3605 -19.6999 13.7651 -67.4901 0.698823 19.0947 -0.117538 -9.41559 0.425277 -1.12478 -2.49886 -13.6363 10.0932 0.0 0.0 0.0 1.07913 39.3744 -3.25884 3.93294 -0.181823 -0.575934 9.82212 -28.0224 -1.72441 -27.6089 0.0 0.0 -0.0 0.0 -0.0 9.5151 -0.604414 4.46572 -23.398 -0.239835 -3.55772 25.0603 11.8624 3.51889 -1.95235 0.0 0.0 0.0 0.0 0.0 
661.572 735.284 -559.36 -169.658 -84.0855 -171.395 1.01596 0.281953 1.18069 1.01672 0.206257 1.19624 1.02126 -0.0281341 1.21356 1.01924 0.163864 1.20278 -23.2538 1.02348 -1.52142 -23.2605 2.66176 -0.92596 -0.0 0.0 -0.0 5.42544 19.8315 10.3698 -13.7642 -34.1921 54.4334 1.28627 -32.503 0.374963 -81.4893 -8.01046 5.25721 -2.26881 11.6865 -9.60906 -0.0 0.0 -0.0 8.11566 9.35549 -15.7786 -18.7756 13.8506 -67.8137 0.693228 18.9528 -0.115714 -9.01735 0.403572 -1.0787 -2.60009 -13.7187 10.6955 0.0 0.0 0.0 1.04107 39.1578 -3.43621 2.72604 -0.121819 -0.400514 10.6319 -25.7602 -1.80988 -25.3968 0.0 0.0 -0.0 0.0 -0.0 9.46159 -2.73652 4.49709 -24.0207 -0.226281 -3.65231 24.717 13.055 3.50266 -3.37595 0.0 0.0 0.0 0.0 0.0 
666.132 732.059 -551.78 -172.988 -84.6981 -174.841 1.03355 0.293164 1.25643 1.0344 0.212626 1.27254 1.03938 -0.0361797 1.28967 1.0371 0.167936 1.2792 -24.4862 0.676842 -1.80565 -24.4859 2.08152 -1.34092 -0.0 0.0 -0.0 5.23252 20.6784 10.0497 -13.8081 -34.0908 54.9405 1.31798 -33.1385 0.392153 -84.0318 -8.33068 5.20734 -2.633 13.2315 -11.1596 -0.0 0.0 -0.0 8.58906 8.56664 -16.8065 -19.2527 14.0969 -67.3117 0.706138 19.2799 -0.119942 -8.58717 0.380489 -1.02875 -2.79023 -14.1992 11.6552 0.0 0.0 0.0 1.70844 38.9485 -4.73026 0.809304 -0.0341707 -0.11949 11.5239 -25.9151 -1.95756 -25.711 0.0 0.0 -0.0 0.0 -0.0 8.60462 -3.11441 4.37688 -24.3626 -0.218402 -3.70418 26.932 11.0209 3.7224 -3.24555 0.0 0.0 0.0 0.0 0.0 
